<mxfile host="app.diagrams.net" agent="Mozilla/5.0 (Macintosh; Intel Mac OS X 10_15_7) AppleWebKit/537.36 (KHTML, like Gecko) Chrome/138.0.0.0 Safari/537.36" version="28.0.7">
  <diagram name="Page-1" id="T-t1nlHNA5XbiOOfiqyW">
    <mxGraphModel dx="1234" dy="790" grid="1" gridSize="10" guides="1" tooltips="1" connect="1" arrows="1" fold="1" page="1" pageScale="1" pageWidth="850" pageHeight="1100" math="0" shadow="0">
      <root>
        <mxCell id="0" />
        <mxCell id="1" parent="0" />
        <mxCell id="w32m27I0OD1CczwxB4oU-15" value="" style="edgeStyle=orthogonalEdgeStyle;rounded=0;orthogonalLoop=1;jettySize=auto;html=1;" edge="1" parent="1" source="w32m27I0OD1CczwxB4oU-2" target="w32m27I0OD1CczwxB4oU-9">
          <mxGeometry relative="1" as="geometry" />
        </mxCell>
        <mxCell id="w32m27I0OD1CczwxB4oU-2" value="" style="sketch=0;outlineConnect=0;fontColor=#232F3E;gradientColor=none;fillColor=#7AA116;strokeColor=none;dashed=0;verticalLabelPosition=bottom;verticalAlign=top;align=center;html=1;fontSize=12;fontStyle=0;aspect=fixed;pointerEvents=1;shape=mxgraph.aws4.bucket;" vertex="1" parent="1">
          <mxGeometry x="57" y="190" width="75" height="78" as="geometry" />
        </mxCell>
        <mxCell id="w32m27I0OD1CczwxB4oU-4" value="Query an external API to retrieve data and writes to an S3 bucket" style="shape=process;whiteSpace=wrap;html=1;backgroundOutline=1;" vertex="1" parent="1">
          <mxGeometry x="175" y="40" width="175" height="80" as="geometry" />
        </mxCell>
        <mxCell id="w32m27I0OD1CczwxB4oU-5" value="Parses the file and processes the ticker types into a temporary table." style="shape=process;whiteSpace=wrap;html=1;backgroundOutline=1;" vertex="1" parent="1">
          <mxGeometry x="175" y="340" width="175" height="80" as="geometry" />
        </mxCell>
        <mxCell id="w32m27I0OD1CczwxB4oU-14" value="" style="edgeStyle=orthogonalEdgeStyle;rounded=0;orthogonalLoop=1;jettySize=auto;html=1;" edge="1" parent="1" source="w32m27I0OD1CczwxB4oU-6" target="w32m27I0OD1CczwxB4oU-2">
          <mxGeometry relative="1" as="geometry" />
        </mxCell>
        <mxCell id="w32m27I0OD1CczwxB4oU-6" value="" style="outlineConnect=0;dashed=0;verticalLabelPosition=bottom;verticalAlign=top;align=center;html=1;shape=mxgraph.aws3.lambda_function;fillColor=#F58534;gradientColor=none;" vertex="1" parent="1">
          <mxGeometry x="60" y="40" width="69" height="72" as="geometry" />
        </mxCell>
        <mxCell id="w32m27I0OD1CczwxB4oU-21" value="" style="edgeStyle=orthogonalEdgeStyle;rounded=0;orthogonalLoop=1;jettySize=auto;html=1;" edge="1" parent="1" source="w32m27I0OD1CczwxB4oU-9" target="w32m27I0OD1CczwxB4oU-20">
          <mxGeometry relative="1" as="geometry" />
        </mxCell>
        <mxCell id="w32m27I0OD1CczwxB4oU-9" value="" style="outlineConnect=0;dashed=0;verticalLabelPosition=bottom;verticalAlign=top;align=center;html=1;shape=mxgraph.aws3.lambda_function;fillColor=#F58534;gradientColor=none;" vertex="1" parent="1">
          <mxGeometry x="60" y="340" width="69" height="72" as="geometry" />
        </mxCell>
        <mxCell id="w32m27I0OD1CczwxB4oU-11" value="Triggers a lambda function to ingest the data" style="shape=process;whiteSpace=wrap;html=1;backgroundOutline=1;" vertex="1" parent="1">
          <mxGeometry x="175" y="190" width="175" height="80" as="geometry" />
        </mxCell>
        <mxCell id="w32m27I0OD1CczwxB4oU-12" value="Temporary tables wait&lt;span style=&quot;background-color: transparent; color: light-dark(rgb(0, 0, 0), rgb(255, 255, 255));&quot;&gt;&amp;nbsp;for processing&lt;/span&gt;" style="shape=process;whiteSpace=wrap;html=1;backgroundOutline=1;" vertex="1" parent="1">
          <mxGeometry x="175" y="471" width="175" height="80" as="geometry" />
        </mxCell>
        <mxCell id="w32m27I0OD1CczwxB4oU-13" value="Daily batch job that analyzes the data and writes to an analysis table and cleans up the temporary table" style="shape=process;whiteSpace=wrap;html=1;backgroundOutline=1;" vertex="1" parent="1">
          <mxGeometry x="175" y="610" width="175" height="80" as="geometry" />
        </mxCell>
        <mxCell id="w32m27I0OD1CczwxB4oU-19" value="" style="outlineConnect=0;dashed=0;verticalLabelPosition=bottom;verticalAlign=top;align=center;html=1;shape=mxgraph.aws3.batch;fillColor=#F58534;gradientColor=none;" vertex="1" parent="1">
          <mxGeometry x="56.25" y="610" width="76.5" height="93" as="geometry" />
        </mxCell>
        <mxCell id="w32m27I0OD1CczwxB4oU-22" value="" style="edgeStyle=orthogonalEdgeStyle;rounded=0;orthogonalLoop=1;jettySize=auto;html=1;" edge="1" parent="1" source="w32m27I0OD1CczwxB4oU-20" target="w32m27I0OD1CczwxB4oU-19">
          <mxGeometry relative="1" as="geometry" />
        </mxCell>
        <mxCell id="w32m27I0OD1CczwxB4oU-20" value="" style="outlineConnect=0;dashed=0;verticalLabelPosition=bottom;verticalAlign=top;align=center;html=1;shape=mxgraph.aws3.rds;fillColor=#2E73B8;gradientColor=none;" vertex="1" parent="1">
          <mxGeometry x="58.5" y="470" width="72" height="81" as="geometry" />
        </mxCell>
      </root>
    </mxGraphModel>
  </diagram>
</mxfile>
